<?xml version="1.0" encoding="utf-8"?>
<!-- Generator: Adobe Illustrator 22.1.0, SVG Export Plug-In . SVG Version: 6.00 Build 0)  -->
<svg version="1.1" id="Слой_1" xmlns="http://www.w3.org/2000/svg" xmlns:xlink="http://www.w3.org/1999/xlink" x="0px" y="0px"
	 viewBox="0 0 34 34" style="enable-background:new 0 0 34 34;" xml:space="preserve">
<style type="text/css">
	.st0{fill:#f44336;}
	.st1{fill:#FFFFFF;}
</style>
<g>
	<g>
		<path class="st0" d="M17,33C14.1,33,6.3,21.8,5.2,20c-1.1-1.9-1.7-4-1.7-6.2C3.5,6.7,9.6,1,17,1s13.5,5.7,13.5,12.8
			c0,2.2-0.6,4.5-1.8,6.4C27.5,22,19.8,32.9,17,33L17,33z"/>
		<path class="st1" d="M17,2c6.9,0,12.5,5.3,12.5,11.8c0,2.1-0.6,4.1-1.7,5.9c-2.2,3.5-9,12.3-10.8,12.4c0,0,0,0,0,0
			c-1.8,0-8.8-8.9-10.9-12.5c-1-1.7-1.6-3.6-1.6-5.7C4.5,7.3,10.1,2,17,2 M17,0C9,0,2.5,6.2,2.5,13.8c0,2.4,0.6,4.7,1.8,6.7
			c1.2,2,3.5,5.2,5.7,7.9c4.3,5.2,5.8,5.6,6.9,5.6h0l0.1,0c1,0,2.5-0.5,6.8-5.6c2.2-2.6,4.5-5.8,5.7-7.7c1.3-2.1,2-4.5,2-6.9
			C31.5,6.2,25,0,17,0L17,0z"/>
	</g>
	<path class="st1" d="M17,6c4.1,0,7.5,3.4,7.5,7.5c0,4.1-3.4,7.5-7.5,7.5s-7.5-3.4-7.5-7.5C9.5,9.4,12.8,6,17,6z"/>
	<path class="st0" d="M21.5,13.5c0-2.5-2-4.5-4.5-4.5s-4.5,2-4.5,4.5c0,2.5,2,4.5,4.5,4.5S21.5,16,21.5,13.5z"/>
</g>
</svg>
